<?xml version="1.0" standalone="no"?>
<!DOCTYPE svg PUBLIC "-//W3C//DTD SVG 20010904//EN"
 "http://www.w3.org/TR/2001/REC-SVG-20010904/DTD/svg10.dtd">
<svg version="1.0" xmlns="http://www.w3.org/2000/svg"
 width="670.000000pt" height="450.000000pt" viewBox="0 0 670.000000 450.000000"
 preserveAspectRatio="xMidYMid meet">
<metadata>
Created by potrace 1.16, written by Peter Selinger 2001-2019
</metadata>
<g transform="translate(0.000000,450.000000) scale(0.100000,-0.100000)"
fill="#000000" stroke="none">
<path d="M5040 4088 c-30 -3 -102 -6 -160 -7 -186 -2 -698 -46 -825 -71 -27
-6 -106 -19 -174 -30 -69 -12 -155 -29 -193 -40 -38 -10 -72 -18 -76 -17 -4 1
-8 -97 -10 -218 l-2 -220 -788 0 c-433 0 -797 4 -809 9 -18 7 -23 16 -23 45 0
20 -4 41 -8 47 -4 7 -57 13 -135 16 -125 6 -128 5 -143 -17 -8 -13 -13 -40
-12 -63 l3 -41 -353 -3 -354 -3 5 28 c3 23 -1 31 -20 38 -12 5 -23 16 -23 25
0 15 -2 15 -20 -1 -18 -17 -20 -17 -14 -2 4 13 1 17 -14 17 -11 0 -23 -6 -25
-12 -4 -10 -6 -10 -6 0 -1 6 -6 12 -12 12 -5 0 -7 -5 -3 -11 4 -7 1 -10 -7 -7
-11 4 -14 33 -15 129 -2 161 -1 153 -24 180 l-20 24 6 -28 c6 -26 4 -28 -17
-25 -21 3 -24 7 -21 41 3 31 1 37 -16 37 -15 0 -24 -11 -34 -42 l-13 -42 -60
0 -60 -1 3 35 c7 71 7 83 -5 87 -16 6 -50 -34 -51 -60 -3 -58 -7 -62 -63 -68
-80 -9 -107 -2 -111 30 -4 33 -30 34 -38 1 -5 -21 -14 -27 -60 -36 -80 -15
-101 -7 -106 41 -2 22 -6 49 -8 60 -3 11 -5 26 -5 33 -1 6 -8 12 -17 12 -13 0
-15 -7 -9 -41 7 -38 6 -41 -14 -34 -17 5 -21 2 -21 -17 0 -47 -12 -68 -36 -68
l-24 0 0 -765 0 -765 28 -52 c70 -131 226 -622 293 -918 12 -52 38 -167 59
-255 21 -88 48 -207 60 -265 12 -58 35 -157 50 -220 15 -63 37 -169 50 -235
12 -66 28 -152 36 -192 8 -40 14 -88 14 -108 0 -24 4 -35 15 -35 19 0 19 14 0
120 -9 47 -16 104 -16 128 -1 24 -7 49 -14 56 -8 7 -17 51 -20 97 -4 46 -11
89 -15 94 -6 8 -60 215 -60 231 0 13 30 -1 75 -36 48 -37 57 -40 136 -46 62
-5 104 -2 156 10 40 9 115 16 169 16 87 0 96 -2 91 -17 -28 -88 -39 -133 -42
-163 l-4 -35 15 29 c9 15 25 56 36 90 31 97 37 102 109 105 34 1 85 6 112 12
71 13 114 11 129 -6 41 -46 41 -42 29 -140 -6 -51 -11 -163 -11 -248 0 -125 3
-157 15 -167 18 -15 17 -16 45 103 23 99 23 107 11 107 -5 0 -14 -28 -21 -63
-23 -123 -32 -99 -26 68 6 144 16 238 28 250 2 2 26 -2 52 -10 27 -8 52 -12
57 -9 14 8 88 -55 95 -80 3 -14 -5 -49 -20 -86 -27 -65 -33 -124 -16 -150 7
-11 10 -8 10 16 0 40 10 49 27 24 8 -11 22 -20 32 -20 37 0 42 -22 35 -154 -5
-92 -4 -126 5 -126 14 0 11 -14 18 115 3 61 6 111 7 112 1 1 11 0 23 -3 26 -7
30 -15 53 -127 17 -83 25 -106 34 -96 4 4 -8 98 -19 150 -6 28 -5 31 10 25 10
-3 23 -2 29 3 6 4 31 11 56 14 25 3 114 17 199 32 219 37 495 62 716 64 223 2
227 1 320 -93 45 -45 66 -78 85 -126 15 -40 32 -66 42 -68 23 -4 13 36 -39
143 -15 33 -100 125 -114 125 -5 0 -9 4 -9 8 0 8 133 7 278 -2 130 -8 201 -69
243 -208 17 -55 25 -68 41 -68 18 0 19 4 13 37 -4 21 -13 50 -21 65 -8 15 -14
40 -14 57 0 16 -4 33 -10 36 -5 3 -10 19 -10 36 0 16 -4 29 -9 29 -4 0 -25 11
-46 25 -55 38 -174 75 -239 75 -31 0 -56 -4 -56 -10 0 -5 -16 -10 -35 -10 -20
0 -35 -5 -35 -11 0 -17 -141 -5 -177 15 -15 8 -49 25 -75 37 -27 12 -48 26
-48 30 0 5 -35 9 -77 9 -43 1 -105 7 -138 15 -33 8 -89 15 -125 15 -46 1 -79
7 -114 24 -45 21 -52 21 -100 9 -51 -14 -266 -49 -361 -60 -27 -3 -78 -16
-112 -29 -49 -19 -80 -24 -152 -24 l-91 0 0 40 c0 61 24 100 60 100 16 0 39 4
52 9 13 5 35 12 51 16 23 5 26 8 17 25 -15 29 -13 90 4 90 8 0 17 10 20 23 3
12 41 58 84 103 78 81 78 81 140 87 35 4 71 11 82 17 29 15 90 12 96 -5 4 -8
15 -15 25 -15 25 0 184 76 236 112 l41 30 294 -5 c282 -6 419 -18 426 -38 2
-5 54 -9 115 -9 62 0 153 -7 202 -15 50 -8 144 -15 210 -15 66 0 170 -5 230
-10 98 -9 577 -22 744 -20 l64 1 -8 -58 c-4 -32 -7 -97 -6 -145 l2 -88 -26 0
c-58 0 -117 -51 -134 -115 -6 -22 -18 -50 -27 -63 -33 -47 -18 -319 20 -361 9
-10 16 -27 16 -39 0 -19 6 -22 37 -22 l37 0 -22 20 c-46 43 -56 78 -56 200 -1
151 4 168 47 165 19 -1 40 -5 46 -9 6 -4 24 -5 40 -1 17 4 38 1 50 -6 17 -11
23 -10 40 5 18 17 19 17 23 -1 2 -10 1 -31 -4 -47 -4 -15 -7 -79 -7 -141 1
-112 -5 -138 -38 -170 -16 -16 -15 -17 2 -14 10 2 26 15 36 29 15 21 18 55 23
215 4 119 2 183 -3 170 -9 -20 -10 -20 -10 1 -1 12 5 37 13 55 7 19 11 41 9
49 -3 11 -2 11 6 -1 44 -69 37 -414 -10 -501 -8 -15 -5 -18 16 -18 21 0 25 5
25 30 0 17 5 39 10 50 6 11 14 29 20 40 12 23 17 141 6 158 -4 6 -11 60 -16
119 -17 185 -16 183 -60 183 -25 0 -40 5 -44 16 -10 26 -7 142 6 210 l11 63
53 7 c69 8 398 -12 494 -31 41 -8 118 -14 170 -15 135 0 333 -32 400 -63 30
-15 116 -50 190 -79 74 -29 155 -65 180 -79 42 -25 147 -59 184 -59 14 0 16
18 16 138 l0 138 -102 37 c-57 21 -111 37 -120 37 -18 0 -34 17 -25 27 6 6
209 -15 232 -24 11 -4 15 3 15 25 l0 30 -107 7 c-167 11 -195 14 -233 25 -19
5 -64 10 -100 10 -107 0 -172 11 -160 25 8 10 2 16 -25 25 -20 7 -39 9 -43 5
-4 -4 -2 -10 4 -12 24 -8 49 -32 42 -39 -5 -4 -16 0 -26 10 -22 19 -52 12 -52
-14 0 -9 9 -25 20 -35 11 -10 22 -27 26 -39 3 -11 16 -32 28 -46 20 -24 20
-24 0 -7 -11 9 -24 14 -29 10 -4 -5 -5 -3 -2 3 6 10 -26 54 -39 54 -3 0 -3
-18 -1 -40 6 -62 -8 -74 -79 -67 -182 19 -407 38 -619 53 -132 9 -244 20 -249
25 -13 12 -15 49 -3 49 5 0 4 7 -3 15 -7 9 -8 15 -2 15 13 0 10 24 -7 44 -12
14 -11 16 4 10 14 -6 16 -3 11 14 -6 17 3 26 51 54 l58 33 185 -5 c357 -9 622
-5 720 9 52 8 118 15 145 16 99 4 349 26 357 31 14 9 8 43 -9 52 -25 13 -275
14 -293 2 -11 -7 -5 -10 25 -11 55 -2 104 -14 85 -22 -8 -3 -75 -8 -148 -11
-72 -3 -153 -11 -180 -18 -58 -15 -547 -15 -700 0 -86 9 -110 8 -148 -5 -25
-8 -48 -13 -50 -10 -7 7 89 52 128 61 23 5 26 3 21 -11 -5 -13 -3 -15 13 -9
10 4 73 9 139 12 66 3 156 10 200 15 44 6 163 10 265 10 207 -1 245 1 256 12
4 4 20 7 34 7 15 0 47 7 71 15 36 13 80 15 232 12 103 -3 187 -1 187 4 0 5
-64 10 -142 11 l-142 3 -11 65 c-10 63 -11 65 -42 68 -28 3 -33 8 -39 39 -4
20 -4 87 -1 150 l5 114 -30 30 c-17 16 -38 29 -47 29 -9 1 -108 1 -221 0 -120
0 -218 5 -237 11 -31 10 -33 14 -33 55 0 37 4 46 23 54 16 6 -4 9 -69 9 -114
1 -144 14 -144 60 0 23 8 41 25 57 16 14 25 34 25 52 0 29 1 29 68 35 37 4
109 7 160 7 l92 0 0 60 0 60 63 0 c67 0 203 22 278 46 26 8 54 14 63 14 14 0
16 28 18 263 8 1082 8 1048 -28 1082 -13 12 -38 26 -56 32 -18 6 -109 38 -203
71 l-170 60 -3 65 -3 66 -47 15 c-169 55 -289 85 -372 95 -113 13 -363 19
-440 9z m395 -28 l70 0 1 -157 c1 -279 14 -920 24 -1193 13 -364 15 -493 7
-507 -4 -6 -2 -13 5 -15 6 -2 9 -9 5 -15 -6 -10 -110 -19 -297 -25 -71 -3 -75
-2 -72 18 2 12 -4 24 -12 27 -19 8 -29 -7 -21 -32 5 -16 -4 -18 -101 -24 -136
-9 -324 -9 -582 0 l-203 6 -14 34 -14 34 -58 -6 c-78 -9 -99 8 -112 90 -5 33
-7 64 -4 68 3 5 93 7 202 6 108 -2 295 0 416 4 627 19 644 21 636 48 -4 14
-19 763 -23 1174 l-3 220 -75 4 c-76 3 -614 -17 -660 -25 -14 -2 -88 -9 -165
-14 -153 -11 -289 -25 -405 -39 -41 -6 -86 -10 -99 -11 l-24 0 6 -459 c3 -252
3 -461 0 -465 -3 -3 -17 9 -29 28 -23 34 -23 39 -26 338 -1 166 -3 330 -4 363
-5 180 -5 172 -16 145 -9 -23 -8 -167 8 -687 3 -114 -3 -136 -32 -112 -8 6
-38 24 -67 39 -33 18 -54 36 -58 52 -7 26 -13 367 -14 717 l0 214 65 13 c36 7
106 22 155 33 167 37 479 74 775 91 102 6 253 15 335 20 83 4 209 7 280 4 72
-2 162 -4 200 -4z m247 -54 c73 -24 148 -47 166 -51 17 -3 32 -10 33 -13 4
-22 8 -744 4 -741 -5 6 -13 162 -21 404 -9 289 -11 316 -23 328 -8 8 -10 4 -6
-18 12 -65 11 -100 -5 -113 -8 -8 -10 -11 -3 -8 15 8 14 -33 -1 -53 -8 -11 -8
-13 2 -7 6 4 12 3 12 -1 0 -10 -21 -33 -30 -33 -9 0 -6 32 5 50 5 9 -2 7 -15
-5 l-24 -20 17 28 c10 15 15 27 12 27 -15 0 -20 -3 -18 -10 1 -4 -4 -14 -13
-20 -13 -11 -13 -15 0 -29 14 -15 13 -17 -2 -17 -13 0 -17 10 -18 47 -1 36 2
46 14 45 10 -1 16 9 17 32 1 17 -3 32 -8 32 -5 0 -3 8 4 18 11 14 10 13 -9 -2
-21 -19 -32 -10 -12 10 11 11 -14 54 -32 54 -7 0 -4 -6 7 -13 17 -13 16 -14
-6 -11 -13 1 -25 3 -27 3 -1 1 2 10 8 21 12 22 37 23 58 3 7 -7 23 -12 35 -12
20 1 21 2 2 6 -11 3 -28 12 -39 22 -10 9 -20 14 -22 13 -9 -7 -84 10 -84 19 0
5 -11 9 -24 9 -14 0 -28 5 -31 10 -3 6 -24 10 -46 10 -28 0 -39 4 -39 15 0 22
15 19 162 -29z m-4893 -293 c-1 -54 -4 -87 -6 -73 -3 14 -8 30 -12 35 -4 6 -7
31 -6 56 l2 46 -37 1 c-28 1 -40 -3 -45 -15 -5 -15 -7 -15 -15 -3 -6 10 -9
-145 -7 -417 2 -238 0 -433 -4 -433 -13 0 -16 90 -18 491 l-2 396 63 2 c34 1
64 4 67 6 16 17 21 -6 20 -92z m-189 -638 c-2 -806 -2 -807 -19 -813 -9 -3 -9
-7 0 -18 7 -8 9 -17 5 -21 -3 -3 -6 -1 -6 7 0 9 -3 10 -14 1 -10 -9 -15 -8
-19 2 -6 15 5 38 19 40 4 1 7 16 6 32 -3 40 -3 56 2 80 3 20 -10 45 -23 45 -4
0 -7 -24 -7 -52 0 -38 5 -55 16 -60 11 -6 10 -7 -5 -5 -16 2 -21 11 -23 45 -2
33 -7 42 -17 38 -8 -3 -17 -1 -20 4 -4 6 3 10 15 10 12 0 18 5 15 10 -3 6 1
13 9 16 19 7 22 25 4 21 -8 -1 -13 8 -13 23 0 35 4 42 19 27 10 -9 11 -14 2
-19 -8 -6 -7 -11 4 -18 8 -5 17 -10 20 -10 3 0 5 45 4 101 0 70 -4 103 -13
108 -10 6 -9 10 3 14 18 7 18 59 1 86 -6 10 -4 12 5 6 9 -6 10 -2 5 16 -4 13
-12 29 -18 34 -7 7 -8 6 -3 -2 5 -9 2 -11 -10 -6 -12 4 -15 3 -10 -5 4 -7 2
-12 -3 -12 -21 0 -11 20 15 32 23 11 24 13 9 24 -9 7 -14 17 -10 23 10 16 23
13 28 -6 3 -12 5 -8 6 9 1 19 -4 27 -16 27 -10 1 -25 1 -33 2 -8 1 -21 0 -29
-2 -7 -2 -16 2 -19 10 -4 11 6 13 47 9 l51 -5 1 221 c3 425 3 511 0 556 -6 78
-8 81 -51 77 -22 -2 -46 -9 -54 -16 -10 -8 -16 -9 -21 -1 -11 17 -26 0 -19
-22 4 -14 2 -18 -5 -14 -15 10 -14 63 2 69 6 3 47 4 90 3 l78 -1 -1 -720z
m5351 714 c19 -6 41 -13 49 -17 8 -3 17 -6 20 -7 59 -18 188 -63 215 -74 39
-18 60 -25 73 -26 11 0 14 -118 15 -654 l2 -654 -52 -18 c-70 -24 -203 -43
-214 -32 -6 6 -5 10 3 11 31 3 196 41 222 51 l28 11 -3 551 c-3 436 -7 553
-17 561 -11 9 -11 13 0 20 10 6 10 10 -2 18 -20 13 -50 13 -50 -1 0 -6 6 -9
14 -6 9 4 16 -3 19 -19 3 -18 1 -24 -9 -20 -8 3 -24 1 -36 -4 l-23 -9 25 -2
c14 -1 30 -1 36 0 16 2 11 -66 -6 -82 -10 -10 -11 -9 -5 3 15 24 13 69 -2 63
-7 -3 -10 -10 -7 -15 4 -6 -5 -2 -20 7 -14 10 -26 22 -26 27 0 5 -7 2 -16 -7
-14 -13 -19 -14 -26 -3 -8 10 -9 10 -6 -2 3 -8 18 -15 34 -16 43 -2 46 -3 39
-14 -4 -6 -13 -7 -23 -2 -9 5 -26 8 -38 7 -19 -2 -21 2 -19 51 2 30 -1 54 -6
54 -8 0 -13 -15 -10 -32 0 -4 -5 -5 -13 -2 -8 3 -20 -3 -27 -13 -8 -11 -21
-23 -29 -28 -9 -5 -7 0 4 14 25 28 34 70 11 51 -8 -6 -13 -16 -12 -22 1 -6 -9
-12 -23 -14 l-25 -5 23 16 c21 15 31 38 15 33 -5 -2 -8 2 -8 7 0 6 3 9 8 8 4
-2 6 0 6 5 -3 20 2 32 12 27 6 -4 8 -13 5 -21 -3 -8 -1 -14 4 -14 6 0 10 11
10 25 0 15 -5 24 -12 23 -7 -2 -12 3 -10 10 1 6 -3 12 -9 12 -6 0 -9 -7 -6
-15 4 -8 2 -17 -3 -20 -6 -4 -10 -1 -10 6 0 8 -4 8 -15 -1 -8 -7 -15 -11 -16
-9 -8 36 -4 49 15 50 17 1 18 2 4 6 -12 3 -18 14 -18 33 0 22 -4 28 -19 27
-11 0 -17 -5 -15 -9 3 -5 9 -6 13 -3 15 9 9 -45 -7 -57 -13 -11 -14 -10 -3 10
10 19 9 25 -11 45 -22 22 -23 24 -5 42 19 20 17 42 -2 37 -7 -1 -9 2 -5 9 4 7
1 10 -7 7 -11 -4 -15 -47 -19 -209 -5 -194 -6 -197 -8 -64 -2 77 -5 175 -7
218 -2 42 -3 77 -1 77 2 0 18 -5 37 -11z m-5790 -48 c0 -25 2 -66 4 -91 1 -25
6 -363 9 -752 l7 -708 -40 0 c-23 0 -44 0 -48 0 -5 0 -8 3 -8 8 -1 4 -7 18
-14 32 -13 25 -13 25 11 -2 15 -17 31 -25 48 -24 l25 3 1 129 c0 90 -4 136
-13 152 -8 13 -9 22 -3 22 5 0 9 3 9 8 -1 4 0 9 1 12 6 16 5 52 -2 56 -4 3 -8
-2 -8 -10 0 -9 -5 -16 -11 -16 -7 0 -5 10 5 26 10 14 16 33 14 42 -2 12 -8 6
-20 -18 l-18 -35 0 28 c0 16 4 26 10 22 6 -3 10 -1 10 4 0 6 -4 11 -10 11 -5
0 -10 4 -10 10 0 5 7 7 14 4 11 -4 18 4 24 28 7 26 5 34 -7 39 -9 4 -19 5 -23
2 -4 -2 -5 3 -2 11 3 9 1 16 -6 16 -6 0 -8 5 -5 10 4 6 14 1 25 -12 l18 -23 1
55 c2 681 0 864 -9 875 -6 7 -8 19 -5 27 8 21 -19 29 -42 13 -16 -13 -16 -14
-1 -15 9 0 19 -4 22 -9 3 -5 -7 -8 -23 -7 -24 0 -28 4 -20 17 4 9 6 18 4 21
-3 3 1 5 8 6 36 3 52 11 55 25 4 19 -42 41 -70 34 -20 -6 -25 9 -5 16 6 2 31
4 55 4 l42 0 1 -46z m215 -1 c5 -425 6 -1546 1 -1547 -4 -2 -31 -3 -59 -3 -35
0 -48 3 -39 9 8 5 24 8 37 6 19 -2 22 1 14 15 -10 18 -3 33 11 24 4 -2 6 -11
3 -18 -3 -8 -1 -17 5 -20 11 -7 16 456 5 467 -9 8 -46 -32 -39 -43 4 -6 2 -10
-3 -10 -6 0 -12 7 -16 15 -3 8 -1 15 5 15 6 0 7 6 2 13 -4 6 -8 18 -9 25 -2
10 1 10 12 1 7 -6 11 -15 8 -20 -10 -16 6 -9 26 11 11 11 20 26 20 34 0 21
-23 26 -40 8 -12 -14 -11 -15 8 -10 12 4 22 2 22 -4 0 -5 -10 -8 -22 -6 -18 2
-23 10 -24 33 -1 58 -4 66 -17 59 -6 -4 -3 2 7 14 19 22 29 82 14 82 -5 0 -8
-12 -8 -27 0 -17 -3 -24 -10 -17 -16 16 0 56 21 51 12 -3 19 0 19 10 0 11 -7
14 -24 9 -14 -3 -28 -2 -31 4 -4 6 7 10 25 10 35 0 49 -23 32 -50 -6 -10 -8
-20 -5 -24 3 -3 7 -20 8 -38 1 -18 0 -27 -2 -20 -8 21 -25 13 -21 -10 4 -30
20 -27 37 7 10 21 10 29 1 35 -15 10 -15 21 2 31 10 7 13 82 12 396 -2 379 -5
481 -18 501 -10 17 -55 20 -68 5 -9 -11 -13 -11 -19 -1 -16 25 -8 29 54 26
l62 -3 1 -45z m4836 33 c5 -2 4 -10 -1 -17 -8 -9 -25 -11 -58 -5 -27 4 -53 3
-59 -2 -6 -5 -14 -6 -17 -2 -4 3 -7 1 -7 -5 0 -7 30 -10 86 -10 47 0 89 -4 94
-8 4 -5 11 -296 15 -646 6 -533 5 -639 -6 -642 -20 -7 -317 -15 -791 -22 -414
-5 -416 -5 -423 15 -3 12 -4 24 -2 28 3 5 49 10 103 11 55 2 102 6 106 8 5 3
8 66 8 140 l0 134 108 2 c59 0 114 0 122 -1 21 -3 147 1 489 13 62 3 119 2
127 -1 18 -7 19 -67 2 -60 -7 2 -12 12 -12 21 1 9 -4 16 -11 16 -8 0 -11 -8
-8 -19 6 -24 -7 -28 -102 -27 -76 1 -80 2 -78 23 2 18 -2 21 -25 18 -15 -2
-37 -4 -48 -4 -15 -1 -23 -9 -26 -26 -4 -21 -1 -25 18 -25 17 0 24 -6 24 -20
0 -16 -7 -20 -37 -21 -21 0 -74 -2 -118 -5 -115 -6 -117 -6 -129 7 -8 9 -7 10
3 4 9 -5 12 -4 7 3 -5 9 -13 9 -28 1 -13 -7 -18 -7 -14 -1 3 6 2 13 -4 17 -16
10 -12 -21 5 -35 8 -7 15 -19 15 -26 0 -16 7 -16 160 -13 166 3 153 0 161 37
4 18 9 35 11 37 2 2 63 5 136 6 144 1 137 -2 132 62 -1 26 0 27 50 27 l52 0
-5 33 c-6 35 -17 318 -22 597 -2 96 -8 187 -13 202 -9 23 -47 47 -57 36 -9 -9
-9 -53 0 -55 6 -1 9 7 7 18 -1 12 3 19 10 17 15 -5 15 -3 24 -435 7 -363 7
-373 -12 -374 -105 -5 -125 -5 -130 3 -3 4 -9 6 -14 3 -5 -3 -44 -8 -87 -10
-43 -3 -101 -7 -129 -11 -39 -4 -53 -2 -63 10 -12 14 -7 16 43 16 50 0 56 2
56 21 0 19 -1 19 -16 5 -10 -11 -34 -16 -70 -16 -40 0 -54 -4 -54 -14 0 -18
-41 -21 -382 -25 l-268 -3 -2 29 c0 15 -1 45 -1 66 0 24 -4 37 -13 37 -18 0
-17 -76 3 -122 l16 -38 77 0 c53 0 81 -4 89 -13 6 -8 8 -17 4 -20 -3 -4 -7
-49 -8 -100 -1 -51 -4 -98 -8 -104 -4 -6 -28 -11 -55 -11 -49 1 -107 23 -97
38 3 4 -2 16 -12 25 -9 10 -18 26 -18 36 -1 16 1 17 14 6 14 -10 14 -10 3 5
-14 18 -7 43 9 33 5 -4 9 -2 9 4 0 6 -12 9 -27 8 -24 -2 -28 2 -33 34 -4 20
-6 57 -5 83 0 25 -3 46 -7 46 -8 0 -11 -42 -11 -122 0 -21 -3 -38 -8 -38 -11
0 -23 46 -16 57 3 5 1 15 -5 23 -8 13 -9 13 -5 -1 10 -30 -8 -41 -28 -19 -26
29 -32 97 -34 365 0 121 -4 288 -7 371 -4 83 -4 167 0 186 6 33 8 35 69 46 34
6 107 17 162 23 55 6 114 13 130 15 17 3 86 9 155 15 69 5 170 13 225 18 55 4
154 9 220 10 65 1 120 3 122 4 5 5 237 6 245 0z m-4763 -433 c-2 -491 -5 -639
-12 -647 -8 -7 -8 -11 -11 522 -2 399 1 478 16 473 5 -2 8 -138 7 -348z m109
-16 c1 -175 0 -329 -3 -341 -4 -19 -12 -23 -40 -23 l-35 0 2 337 3 337 25 7
c14 4 30 6 35 5 6 -2 11 -119 13 -322z m203 324 c5 -15 9 -622 4 -646 -6 -30
-9 -33 -38 -30 l-31 3 -4 323 c-2 177 -1 329 2 337 4 12 63 23 67 13z m-423
-346 l-3 -337 -30 0 -30 0 -3 325 c-1 179 0 330 2 336 2 6 18 11 35 12 l31 1
-2 -337z m-208 63 c3 -143 3 -291 0 -330 l-5 -70 -30 0 -30 0 -5 325 c-3 179
-1 328 3 331 5 3 20 6 35 5 l27 -1 5 -260z m1855 101 c9 -30 15 -365 6 -370
-12 -8 -217 -13 -224 -6 -3 3 -8 92 -11 198 l-5 193 116 -2 c71 -2 116 -7 118
-13z m1057 -186 l46 0 4 -71 c2 -39 1 -74 -2 -78 -3 -3 -48 -6 -100 -6 -80 0
-393 -14 -425 -18 -6 -1 -10 29 -10 73 l0 74 40 9 c45 9 349 26 380 21 11 -2
41 -4 67 -4z m181 -57 c4 -38 7 -97 7 -134 l0 -65 -49 -21 -50 -21 -3 144 c-2
79 -1 149 0 154 2 6 23 10 46 10 l43 0 6 -67z m-709 29 c2 -4 6 -86 8 -182 l3
-175 -52 -5 -53 -6 0 94 c0 68 3 92 13 91 37 -5 67 2 67 16 0 18 -55 21 -66 3
-11 -17 -22 30 -19 78 1 21 3 49 4 61 1 16 9 23 29 26 48 7 61 7 66 -1z
m-1056 -457 c1 -170 0 -323 -3 -340 -4 -23 -16 -36 -54 -57 -42 -24 -53 -26
-80 -17 -18 6 -35 9 -38 5 -4 -3 -8 -32 -11 -64 -4 -52 -28 -104 -48 -103 -4
1 -7 161 -6 356 2 321 -2 390 -21 343 -3 -7 -6 0 -6 15 -1 17 3 26 9 22 13 -8
18 7 24 85 3 36 5 66 6 68 0 1 51 1 113 0 l112 -3 3 -310z m1618 302 c14 5 24
-29 24 -89 0 -43 -3 -48 -37 -70 -34 -21 -50 -23 -168 -24 -71 -1 -176 -4
-232 -8 l-103 -8 -1 34 c0 18 -2 51 -4 73 -6 71 -6 71 113 79 235 14 287 18
289 20 2 1 26 -1 55 -4 29 -4 58 -5 64 -3z m-2095 -141 c0 -52 4 -98 9 -101 6
-4 6 -14 -1 -26 -7 -15 -7 -24 1 -34 8 -9 8 -15 0 -20 -6 -4 -8 -15 -5 -25 3
-10 2 -21 -2 -23 -10 -6 -9 -313 1 -344 8 -25 11 -24 -76 -27 l-58 -1 0 35 c0
26 3 31 10 20 6 -9 10 -10 10 -3 0 6 -4 15 -10 18 -5 3 -10 15 -10 26 0 13 4
18 12 13 7 -5 8 -3 2 7 -5 8 -9 143 -10 301 l-2 287 56 3 c32 2 61 0 65 -3 5
-4 9 -50 8 -103z m183 -247 l1 -354 -55 0 c-30 0 -61 -4 -68 -8 -11 -7 -13 31
-11 201 1 116 -2 215 -5 221 -4 6 -2 19 3 29 7 13 7 22 -1 30 -7 7 -7 16 0 29
8 14 6 23 -11 42 -12 13 -16 21 -9 17 6 -4 13 -4 13 1 2 13 7 65 10 105 l2 37
56 4 c31 1 60 3 65 2 5 -1 10 -150 10 -356z m-373 -143 l2 -378 -66 -2 -67 -1
1 135 c1 74 4 124 8 110 4 -14 6 -58 5 -97 -1 -40 3 -73 7 -73 5 0 9 -7 9 -15
0 -8 -5 -15 -11 -15 -6 0 -9 -5 -7 -12 2 -6 21 -12 41 -13 29 0 37 3 37 17 0
11 -5 15 -14 12 -8 -3 -17 0 -22 7 -4 7 -3 10 4 5 6 -3 15 6 20 21 6 16 11 21
12 13 8 -77 26 -88 24 -14 -2 36 -4 67 -6 69 -6 6 0 174 7 185 3 5 -1 10 -10
10 -10 0 -15 -6 -12 -13 3 -8 -3 -13 -18 -13 -13 0 -21 4 -19 8 3 5 10 6 15 3
5 -4 9 -1 9 4 0 6 -6 11 -14 11 -13 0 -14 49 -1 71 4 5 1 9 -6 9 -10 0 -10 3
-1 12 14 14 16 32 4 24 -5 -3 -8 4 -7 14 1 22 14 39 16 22 2 -13 5 -28 9 -39
4 -12 8 -26 9 -40 2 -24 21 -13 21 12 0 14 -6 25 -12 25 -9 0 -9 3 -2 8 18 12
15 94 -4 109 -9 8 -12 12 -6 9 16 -8 26 22 14 42 -8 15 -9 14 -10 -4 0 -15 -8
-24 -26 -28 -15 -4 -29 -5 -32 -1 -3 3 2 5 12 5 13 0 16 5 11 21 -5 14 -4 19
4 15 7 -5 9 -1 5 9 -5 13 -2 15 20 9 26 -6 27 -5 20 22 -9 39 -11 40 -35 18
-20 -18 -20 -18 -17 11 2 20 -1 29 -9 28 -7 -2 -13 2 -13 7 0 6 6 10 13 10 6
0 22 3 35 6 13 4 22 2 22 -5 0 -7 -6 -11 -13 -9 -7 2 -14 -1 -15 -6 -6 -21 27
-12 39 10 7 13 14 23 15 21 2 -1 4 -173 5 -381z m2159 318 c0 -7 -135 -71
-185 -87 -40 -12 -172 -37 -199 -37 -3 0 -6 26 -6 58 l0 57 88 3 c48 2 89 6
91 8 5 5 211 4 211 -2z m-984 -244 c37 0 29 -14 -23 -40 -40 -20 -63 -24 -143
-25 -158 -1 -182 8 -110 40 47 21 146 35 209 29 24 -2 54 -4 67 -4z m1049
-119 c3 -5 30 -9 60 -8 31 1 60 -4 67 -11 17 -17 11 -19 -63 -24 -60 -3 -66
-2 -61 14 4 16 1 17 -24 8 -16 -6 -34 -16 -40 -21 -16 -13 -209 0 -196 13 27
27 243 51 257 29z m-1850 -244 c4 -27 4 -59 1 -71 -5 -21 -12 -24 -71 -25
l-65 -1 0 55 0 56 38 -2 c65 -4 85 0 79 15 -5 13 2 30 9 23 2 -1 6 -24 9 -50z
m2271 8 c18 -43 18 -55 0 -55 -8 0 -27 -11 -43 -24 -109 -91 -388 -180 -547
-174 l-82 3 8 45 c8 52 35 150 41 157 3 2 74 6 158 8 149 4 222 15 369 56 36
9 69 18 73 18 4 1 15 -15 23 -34z m-2441 -48 l-2 -52 -71 -1 -72 -1 0 51 0 52
73 1 74 2 -2 -52z m1667 24 c66 -12 101 -14 108 -7 7 7 10 1 10 -16 0 -33 -28
-155 -41 -180 -9 -17 -12 -17 -32 -3 -12 8 -29 15 -38 15 -22 0 -151 41 -166
52 -7 5 -17 6 -24 2 -16 -10 -7 69 14 119 19 44 25 45 169 18z m-1584 -125 c7
-4 9 -12 6 -18 -4 -7 -2 -8 5 -4 6 4 9 11 6 16 -5 8 46 22 54 14 2 -2 -4 -12
-13 -23 -20 -22 -53 -33 -61 -21 -3 5 -24 7 -48 4 -23 -2 -236 -6 -474 -9
-424 -6 -432 -6 -442 14 -6 11 -11 23 -11 28 0 10 962 9 978 -1z m2526 -66
c20 -23 34 -45 31 -50 -10 -16 -50 -62 -91 -105 -23 -24 -43 -47 -45 -52 -7
-16 -115 -93 -132 -93 -9 0 -33 -11 -53 -25 -37 -25 -59 -31 -67 -17 -2 4 -2
1 -1 -6 2 -7 -4 -16 -14 -19 -42 -16 -123 -75 -132 -97 -6 -17 -26 -30 -65
-45 -53 -20 -58 -20 -88 -5 -18 9 -45 26 -62 38 -38 28 -117 66 -136 66 -37 0
-25 -15 22 -29 28 -9 52 -20 53 -26 2 -19 -45 -16 -89 5 -50 24 -70 65 -63
130 l3 35 135 12 c177 16 527 67 539 78 15 16 -23 15 -136 -4 -148 -23 -199
-28 -208 -19 -4 4 10 10 31 13 99 16 226 63 274 101 8 7 42 27 75 45 33 18 85
49 115 70 30 21 58 38 61 38 4 1 23 -17 43 -39z m-1694 -124 c0 -7 -7 -19 -15
-26 -8 -7 -29 -36 -46 -66 -16 -29 -35 -57 -41 -60 -17 -11 -118 -13 -118 -3
0 5 29 40 65 78 46 49 77 72 103 79 51 14 52 14 52 -2z m490 -310 c-4 -4 -11
1 -14 12 -4 11 -14 22 -24 25 -23 7 -165 67 -170 71 -2 2 13 29 32 59 20 31
36 60 36 65 0 24 39 43 73 37 24 -5 37 -3 43 7 5 8 13 -42 21 -127 6 -77 8
-144 3 -149z m1273 168 c3 -133 -4 -154 -59 -183 -39 -21 -138 -102 -243 -197
-53 -49 -67 -51 -126 -18 -30 16 -55 34 -55 39 0 17 154 142 258 210 53 35
123 86 155 112 57 47 58 49 55 95 -2 26 1 43 5 39 5 -5 9 -49 10 -97z m1483
59 l-1 -48 -423 -3 -422 -2 0 50 0 50 423 0 424 0 -1 -47z m-2621 -17 c22 -3
84 -9 138 -12 54 -4 100 -10 102 -14 7 -11 -91 -22 -172 -20 -96 2 -105 1 -98
-10 3 -5 38 -10 77 -10 l70 0 -7 -47 c-6 -50 15 -123 36 -123 5 0 7 -4 4 -10
-3 -5 -16 -10 -29 -10 -12 0 -26 -4 -32 -9 -14 -12 -131 -34 -149 -28 -13 5
-15 31 -15 162 0 145 1 155 18 146 9 -5 35 -12 57 -15z m1444 -93 c45 -34 101
-77 124 -96 23 -19 80 -60 127 -92 130 -89 233 -178 240 -205 8 -29 -4 -143
-19 -183 -10 -24 -15 -27 -63 -28 -62 -2 -69 -2 -169 4 -46 3 -92 13 -121 26
-43 19 -67 46 -52 60 4 3 9 0 11 -6 7 -19 19 -16 44 9 15 16 20 18 16 6 -3 -9
2 -23 13 -33 17 -15 19 -15 28 1 11 19 34 11 26 -10 -3 -7 -16 -12 -29 -10
-14 1 -27 -2 -31 -7 -3 -5 7 -9 23 -10 15 0 43 -2 61 -5 17 -2 32 1 32 6 0 6
-12 10 -27 11 -16 0 -22 3 -15 6 10 4 10 8 1 19 -6 8 -8 14 -5 14 4 0 -7 14
-24 30 -17 17 -27 30 -23 31 4 0 -3 4 -15 10 -15 5 -30 5 -40 0 -12 -7 -22 -5
-34 6 -15 14 -17 13 -15 -6 1 -13 6 -20 14 -17 19 8 16 0 -12 -28 l-24 -24
-26 20 c-14 10 -25 17 -25 13 0 -4 -7 1 -16 9 -14 15 -13 19 6 46 18 26 19 30
5 30 -9 0 -13 -5 -9 -11 4 -7 -2 -9 -17 -7 -13 2 -23 9 -21 16 1 8 -2 11 -8 7
-6 -4 -3 -16 8 -33 l17 -27 -60 34 c-33 18 -67 40 -75 48 -11 12 -9 11 12 -1
17 -11 28 -14 33 -7 3 6 11 11 17 11 7 0 7 -5 -1 -14 -9 -10 -8 -15 1 -19 9
-3 13 5 13 24 1 15 -3 25 -8 22 -5 -3 -13 0 -17 8 -11 17 -70 20 -70 2 0 -7
-4 -13 -10 -13 -9 0 -7 46 6 125 2 17 7 68 10 115 5 64 13 98 32 135 39 75 42
78 62 63 9 -7 54 -41 99 -75z m1211 17 c0 -6 -160 -10 -440 -10 -275 0 -441 4
-445 10 -4 7 151 10 439 10 284 0 446 -4 446 -10z m1100 -34 c0 -14 -4 -28
-10 -31 -5 -3 -10 1 -10 9 0 12 -10 16 -40 16 -31 0 -38 -3 -34 -15 5 -12 -3
-15 -37 -16 -24 0 -131 -2 -238 -5 -158 -3 -192 -2 -183 9 8 10 6 13 -8 14
-13 1 -17 -3 -13 -15 4 -13 3 -14 -5 -4 -7 10 -28 13 -76 10 -68 -3 -91 7 -33
16 17 3 75 8 127 11 52 3 135 8 185 11 49 3 91 6 92 7 1 1 65 3 142 5 l141 3
0 -25z m-752 -39 c-3 -19 -9 -22 -45 -20 -33 1 -43 -2 -48 -16 -3 -10 -18 -21
-33 -24 -28 -6 -71 -40 -171 -136 l-56 -54 -373 2 -373 2 -93 67 c-52 37 -102
72 -112 78 -11 7 -16 15 -13 18 7 7 82 16 127 16 19 0 23 5 20 23 -2 18 -10
23 -41 25 -38 3 -58 25 -41 42 5 5 260 10 574 11 311 1 588 5 615 8 55 7 69
-2 63 -42z m-4 -89 c0 -16 -1 -76 -2 -135 -1 -66 -6 -103 -11 -98 -5 6 -11 24
-13 40 l-3 30 -135 5 c-127 5 -133 6 -105 20 17 8 57 37 90 65 100 85 124 101
153 100 23 0 27 -4 26 -27z m-3804 8 c0 -9 -9 -55 -21 -103 -11 -48 -18 -101
-16 -116 2 -15 1 -30 -3 -32 -3 -2 -7 15 -9 38 -1 23 -5 45 -9 49 -4 4 -40 8
-80 9 -46 1 -76 7 -78 14 -3 6 6 41 19 76 l24 64 49 5 c112 11 124 11 124 -4z
m442 -89 c43 -18 76 -36 75 -42 -2 -5 -38 -23 -80 -39 -42 -16 -77 -33 -77
-37 0 -14 17 -11 102 18 70 24 80 25 94 12 22 -22 9 -44 -39 -65 -23 -11 -68
-36 -100 -57 -67 -43 -80 -42 -126 9 -32 35 -32 35 -20 92 6 31 22 78 35 104
27 53 18 53 136 5z m584 37 c20 -5 20 -7 7 -57 -10 -36 -12 -81 -8 -147 3 -52
6 -109 5 -126 0 -32 -67 -161 -95 -184 -19 -16 -19 -1 0 24 8 11 15 26 15 34
0 8 11 27 24 43 15 17 23 38 22 54 -2 14 1 25 7 25 6 0 3 8 -6 18 -10 10 -14
22 -10 26 5 4 8 23 9 41 0 26 -3 33 -17 32 -17 -1 -17 -3 -3 -18 14 -16 14
-18 -5 -28 -14 -8 -22 -8 -27 1 -4 6 -3 8 4 4 17 -10 24 11 10 34 -17 27 -31
26 -22 -2 5 -16 -2 -11 -26 16 -33 38 -35 54 -3 42 14 -6 15 -9 4 -15 -9 -6
-5 -8 13 -8 l25 0 -29 25 c-28 24 -28 27 -13 44 9 10 11 18 5 18 -12 0 -30
-27 -30 -45 -1 -19 -19 -15 -42 10 -16 17 -19 25 -9 25 12 0 11 2 -1 10 -10 6
-11 10 -2 10 6 0 12 4 12 9 0 5 -12 8 -27 8 -16 0 -22 -2 -15 -4 6 -3 9 -9 6
-14 -3 -6 -12 -2 -20 8 -19 25 -17 33 6 33 11 0 20 5 20 11 0 7 9 9 21 6 12
-3 18 -3 14 1 -3 3 25 14 62 23 77 20 90 21 119 13z m811 -79 c7 -7 18 -15 25
-17 11 -4 10 -14 0 -54 -7 -26 -15 -50 -17 -52 -2 -2 -23 5 -47 16 -24 10 -61
22 -82 26 l-39 7 54 49 c55 50 76 55 106 25z m-617 -20 c36 -8 99 -22 140 -31
41 -9 82 -21 90 -28 8 -6 35 -22 60 -35 25 -13 54 -32 65 -41 21 -18 68 -45
98 -56 9 -3 17 -10 17 -15 0 -5 9 -9 19 -9 20 0 36 -26 22 -34 -13 -8 -142 3
-155 13 -11 9 -67 26 -116 35 -63 11 -98 35 -84 57 5 8 9 8 14 -1 5 -8 9 -5
13 9 5 21 -7 29 -18 12 -16 -28 -72 -41 -167 -41 -64 0 -97 4 -93 10 3 6 -1
10 -9 10 -9 0 -16 -5 -16 -11 0 -5 -4 -8 -9 -4 -8 4 12 100 34 163 5 15 14 15
95 -3z m-2040 -55 c68 -36 399 -86 640 -95 161 -7 179 -12 265 -70 33 -22 96
-58 140 -80 99 -50 113 -72 96 -154 -11 -56 -15 -78 -26 -157 -4 -28 -13 -45
-28 -53 -12 -7 -35 -30 -51 -51 -32 -43 -43 -44 -43 -4 -1 14 3 21 7 15 5 -9
10 -8 20 4 12 15 10 17 -20 19 -16 1 -32 61 -24 89 9 29 -15 121 -39 147 -47
53 -295 114 -502 124 -164 9 -213 15 -218 31 -3 7 -15 11 -31 8 -14 -3 -58 2
-98 10 -96 21 -263 41 -282 34 -10 -4 -12 0 -7 16 11 36 73 167 80 168 3 1 16
3 29 4 12 1 25 5 28 8 8 7 37 1 64 -13z m1445 -35 c0 -9 29 -46 66 -84 50 -52
64 -114 50 -213 -7 -49 -16 -74 -35 -94 -14 -15 -23 -31 -21 -35 3 -4 -1 -12
-9 -18 -9 -8 -28 -8 -69 0 -55 11 -56 12 -51 43 16 90 27 143 35 158 5 9 5 26
1 38 -8 20 -9 20 -24 3 -9 -10 -23 -61 -33 -113 -27 -152 -30 -163 -44 -168
-11 -4 -12 2 -6 24 4 16 9 40 10 54 5 47 14 95 24 128 8 26 7 32 -5 32 -8 0
-14 10 -14 25 0 17 -9 28 -32 40 -18 9 -46 27 -63 41 -35 29 -46 18 99 101 86
49 121 60 121 38z m-1666 -97 c-1 -29 -45 -103 -63 -106 -11 -3 -70 -1 -132 3
l-113 7 -10 49 c-6 28 -11 52 -11 54 0 3 74 5 165 5 126 0 165 -3 164 -12z
m4278 -91 c-2 -18 3 -22 25 -22 42 0 43 -12 4 -36 -24 -14 -36 -28 -36 -42 0
-12 -5 -57 -12 -99 l-11 -78 -36 5 c-20 2 -81 7 -136 10 -55 3 -122 7 -150 9
-27 3 -90 7 -140 11 -114 8 -189 16 -194 21 -2 2 4 15 13 28 9 14 16 31 16 38
0 8 13 28 29 45 22 25 40 34 79 39 48 6 51 8 59 43 l9 36 204 5 c113 3 222 6
242 7 33 2 37 0 35 -20z m-4117 -113 c52 -9 106 -18 118 -19 13 -2 26 -6 29
-8 2 -3 -15 -30 -40 -60 -24 -30 -58 -75 -75 -100 -17 -24 -39 -47 -47 -51 -9
-3 -50 -6 -91 -6 -86 0 -149 25 -164 65 -5 13 -18 30 -30 37 -11 7 -20 20 -20
28 0 14 48 67 101 114 36 31 43 6 20 -69 -20 -62 -28 -136 -15 -122 3 3 17 50
31 104 13 54 29 101 34 104 11 7 12 7 149 -17z m362 -65 c54 -13 106 -19 170
-18 83 2 100 -1 163 -28 39 -17 93 -38 122 -47 28 -10 57 -24 64 -33 8 -8 19
-68 26 -132 8 -64 16 -135 19 -158 7 -48 -1 -53 -49 -30 -25 11 -27 17 -26 62
2 47 -35 158 -63 193 -12 14 -42 17 -33 2 8 -14 2 -13 -45 6 -22 9 -38 19 -36
23 2 3 -37 7 -88 9 -50 1 -120 7 -156 13 -74 13 -156 8 -283 -16 -48 -9 -95
-15 -104 -13 -11 2 4 29 58 102 l72 98 56 -6 c30 -4 90 -16 133 -27z m-642
-148 c0 -5 16 -18 36 -30 48 -28 193 -28 392 0 239 34 462 16 592 -49 44 -22
55 -34 67 -67 8 -22 12 -58 11 -80 -3 -42 -9 -45 -63 -31 -11 2 -24 5 -29 5
-5 1 -31 25 -57 54 l-49 52 -72 -1 c-174 -4 -450 -24 -533 -39 -152 -29 -272
-8 -333 58 -21 22 -21 26 -8 63 8 21 17 47 20 57 6 17 26 24 26 8z m1975 -442
c36 -10 143 -84 145 -100 0 -3 -57 -12 -127 -18 -160 -16 -387 -47 -474 -66
-36 -8 -89 -17 -118 -21 -46 -5 -54 -4 -67 15 -10 13 -26 21 -44 21 -22 0 -29
5 -32 22 -2 15 -13 25 -35 32 -18 5 -33 13 -33 17 0 5 3 9 6 9 3 0 88 14 187
31 178 30 447 66 517 68 19 0 53 -4 75 -10z m322 -39 c110 -9 193 -30 193 -50
0 -3 -74 -7 -164 -8 l-163 -3 -16 25 c-9 13 -26 27 -37 31 -35 11 -22 23 23
19 23 -2 97 -8 164 -14z"/>
<path d="M2745 3237 c-82 -4 -156 -9 -162 -12 -7 -2 -13 -21 -13 -41 0 -24 4
-34 13 -31 6 2 12 12 12 22 0 28 35 35 236 42 166 5 189 4 189 -9 0 -13 -14
-15 -72 -15 -175 3 -338 -8 -338 -22 0 -9 144 -31 203 -31 27 0 57 5 67 10 10
6 45 10 77 11 85 1 93 5 93 45 0 30 -3 34 -27 35 -16 0 -50 1 -78 2 -27 1
-117 -1 -200 -6z"/>
<path d="M2667 3042 c-44 -4 -58 -26 -33 -50 12 -12 16 -13 14 -3 -2 7 3 16
10 18 7 3 10 -1 6 -10 -10 -26 47 -40 143 -33 184 13 189 15 177 60 l-6 26
-137 -2 c-75 -1 -153 -4 -174 -6z"/>
<path d="M4939 1641 c-21 -53 -15 -55 138 -65 111 -7 146 -6 158 4 17 14 20
66 4 76 -6 3 -74 7 -151 8 l-140 2 -9 -25z"/>
<path d="M1 1998 c-1 -26 35 -172 83 -338 13 -47 42 -168 65 -270 107 -490
157 -826 195 -1315 3 -38 6 -71 6 -72 0 -2 5 -3 11 -3 14 0 5 194 -16 365 -7
61 -16 139 -20 175 -21 223 -145 879 -205 1085 -12 39 -36 129 -55 202 -19 73
-41 147 -49 165 -14 33 -14 33 -15 6z"/>
</g>
</svg>
