<?xml version="1.0" standalone="no"?>
<!DOCTYPE svg PUBLIC "-//W3C//DTD SVG 20010904//EN"
 "http://www.w3.org/TR/2001/REC-SVG-20010904/DTD/svg10.dtd">
<svg version="1.0" xmlns="http://www.w3.org/2000/svg"
 width="479.000000pt" height="292.000000pt" viewBox="0 0 479.000000 292.000000"
 preserveAspectRatio="xMidYMid meet">
<metadata>
Created by potrace 1.16, written by Peter Selinger 2001-2019
</metadata>
<g transform="translate(0.000000,292.000000) scale(0.100000,-0.100000)"
fill="#000000" stroke="none">
<path d="M3691 2711 c-135 -10 -138 -18 -126 -395 7 -218 9 -236 26 -241 14
-5 19 -16 19 -44 0 -37 -2 -39 -37 -45 -87 -14 -90 -12 -97 54 -4 33 -11 62
-16 65 -6 4 -10 14 -10 24 0 22 -73 167 -98 194 -9 11 -26 23 -37 28 -11 5
-29 15 -39 21 -97 63 -110 68 -176 68 -37 0 -80 -4 -96 -10 -16 -5 -49 -11
-74 -14 -25 -2 -67 -10 -95 -16 -149 -37 -158 -41 -202 -86 -42 -44 -43 -46
-33 -88 5 -23 23 -69 40 -100 35 -68 42 -146 13 -146 -44 -1 -48 -17 -48 -185
0 -88 3 -162 6 -165 3 -3 31 -33 62 -67 51 -57 57 -67 57 -107 0 -25 -4 -48
-10 -51 -5 -3 -10 -29 -10 -58 0 -42 -5 -56 -27 -79 -27 -28 -28 -28 -152 -28
l-126 0 -22 35 c-19 29 -23 49 -23 120 l0 85 40 25 c50 31 58 50 35 75 -14 15
-20 47 -26 126 -5 58 -12 110 -15 116 -4 6 -10 66 -14 132 -9 144 -29 260 -41
230 -7 -19 -8 -19 -9 1 -6 79 -25 129 -56 145 -13 7 -45 10 -80 7 -33 -3 -124
-10 -204 -16 -80 -5 -158 -14 -175 -19 -16 -5 -55 -10 -85 -11 -30 -1 -59 -7
-64 -12 -6 -5 -17 -9 -25 -9 -23 0 -141 -52 -141 -62 0 -4 -8 -8 -17 -8 -24 0
-83 -23 -83 -32 0 -11 15 -10 45 4 34 15 53 -3 60 -61 3 -24 24 -150 46 -280
55 -323 76 -460 70 -466 -2 -3 -83 -5 -180 -5 -121 0 -171 -3 -161 -10 9 -6
87 -10 188 -9 133 1 177 -2 190 -12 12 -10 36 -12 87 -8 l70 5 -71 2 c-43 1
-76 7 -82 15 -9 11 -26 75 -38 142 -10 59 -44 250 -49 275 -2 14 -11 72 -20
129 -8 57 -17 107 -20 111 -8 13 -23 170 -18 189 5 22 67 52 112 56 17 1 37 8
45 14 17 14 111 28 251 37 50 4 141 12 203 18 91 10 116 10 131 0 35 -25 36
-29 107 -484 19 -124 39 -235 44 -247 21 -51 -23 -89 -122 -107 -21 -4 -38
-11 -38 -16 0 -5 -6 -7 -14 -4 -8 3 -23 1 -33 -5 -17 -10 -17 -10 0 -11 9 0
17 -4 17 -10 0 -19 28 -10 33 10 5 19 47 30 47 12 0 -15 -31 -52 -45 -52 -7 0
-16 -6 -18 -12 -4 -10 -8 -9 -16 2 -6 8 -11 10 -11 4 0 -18 -45 -43 -102 -58
-53 -14 -53 -14 -25 -25 16 -6 33 -11 39 -11 5 0 8 -6 5 -13 -3 -7 1 -21 8
-30 12 -16 13 -16 19 5 9 34 8 36 -21 51 l-27 15 30 6 c17 4 57 17 90 30 52
21 62 30 84 72 l25 49 5 -85 c3 -47 3 -91 1 -97 -2 -8 -21 -14 -45 -15 l-41
-1 38 -4 c20 -2 37 -9 37 -15 0 -6 9 -8 21 -5 27 7 35 -17 15 -47 -13 -21 -14
-25 0 -30 8 -3 14 -14 12 -23 -2 -12 3 -17 15 -15 21 4 22 -5 2 -24 -19 -19
-19 -30 0 -38 11 -4 15 1 15 18 0 26 37 64 63 63 9 0 17 -7 17 -16 0 -13 10
-15 50 -13 54 4 58 8 35 38 -13 17 -14 17 -15 2 0 -10 -7 -18 -16 -18 -10 0
-14 6 -11 14 5 13 -30 15 -113 4 -19 -2 -25 1 -25 17 0 15 6 20 25 18 14 0 67
-3 117 -5 51 -1 93 -6 93 -10 0 -5 -7 -8 -16 -8 -11 0 -14 -6 -9 -21 5 -16 -1
-28 -24 -50 -17 -15 -34 -42 -38 -59 -3 -20 -15 -36 -30 -43 -35 -16 -42 -55
-13 -77 l23 -17 -22 -37 c-13 -20 -26 -36 -29 -37 -4 0 -49 -1 -100 -2 -70 -1
-97 -6 -105 -17 -7 -8 -30 -24 -52 -35 -92 -47 -195 -107 -195 -115 0 -4 7
-10 15 -14 8 -3 15 -15 15 -27 0 -18 2 -20 15 -9 9 7 14 19 11 25 -7 19 23 55
45 55 11 0 18 4 15 9 -3 4 2 15 12 24 20 18 72 12 72 -9 0 -10 8 -12 29 -8 22
5 57 -6 140 -45 86 -39 128 -52 180 -57 94 -9 98 -12 77 -63 -9 -23 -16 -52
-16 -66 0 -13 -4 -26 -10 -30 -5 -3 -46 9 -90 26 -80 31 -83 31 -119 14 l-37
-16 -94 45 c-51 25 -106 46 -120 46 -15 0 -44 -11 -64 -25 -45 -30 -59 -32
-51 -5 5 16 2 20 -19 20 -26 0 -96 30 -158 68 -47 29 -99 40 -214 48 -97 6
-101 5 -107 -15 -4 -16 0 -22 19 -27 31 -8 22 -21 -27 -41 -69 -27 -42 -33 32
-6 l71 25 26 -30 c21 -24 38 -32 77 -36 43 -5 46 -4 25 6 -14 6 -29 10 -34 9
-21 -5 -57 23 -53 41 3 10 2 16 -3 13 -8 -5 -70 23 -70 32 0 13 177 -10 212
-28 21 -10 44 -19 51 -19 8 0 20 -7 27 -14 6 -8 32 -25 58 -37 39 -19 43 -24
26 -30 -19 -8 -16 -10 24 -14 12 -1 58 -13 103 -25 58 -17 79 -27 75 -37 -4
-10 -1 -11 14 -3 16 9 22 6 34 -17 14 -26 15 -27 16 -5 0 20 5 22 53 22 35 1
69 9 102 25 53 26 65 30 65 17 0 -4 -17 -15 -37 -24 -21 -10 -49 -24 -63 -32
-50 -29 -102 -47 -117 -42 -13 5 -154 -63 -178 -87 -5 -5 0 -4 12 2 39 20 36
12 -8 -24 -24 -19 -51 -35 -59 -35 -9 0 -20 -4 -26 -10 -5 -5 -80 -46 -167
-90 -156 -79 -203 -96 -177 -65 16 19 3 19 -30 0 -37 -21 -524 -21 -633 0 -44
8 -84 12 -90 8 -7 -4 -2 -10 13 -14 15 -5 -6 -7 -49 -6 -49 1 -76 6 -79 14 -3
10 8 11 42 7 28 -4 46 -3 46 3 0 10 -24 15 -205 48 -58 10 -85 20 -97 36 -10
12 -18 17 -18 13 0 -5 20 -30 43 -55 42 -47 99 -75 134 -66 11 2 1 7 -22 12
-22 4 -49 12 -59 18 -19 9 -19 10 -1 23 10 8 23 10 29 6 6 -5 30 -14 54 -21
34 -9 41 -15 33 -25 -15 -17 -4 -26 33 -26 55 0 106 -12 106 -25 0 -19 17 -22
100 -19 41 1 98 2 125 2 28 0 99 -1 160 -2 67 -1 118 4 132 11 13 6 23 8 23 4
0 -13 62 -22 75 -11 6 5 14 7 17 4 3 -3 101 -7 217 -10 186 -3 212 -2 218 12
4 11 8 12 13 4 5 -8 113 -12 374 -15 l367 -4 9 22 9 22 0 -23 1 -23 136 6 c75
3 140 8 145 11 5 3 9 1 9 -5 0 -11 438 -8 630 5 69 5 195 7 280 6 127 -2 162
0 192 14 l37 17 3 93 3 93 43 -19 42 -19 0 -95 c0 -52 4 -97 8 -100 4 -3 19 1
32 7 21 10 27 24 35 77 10 65 10 65 41 62 30 -3 39 4 103 73 10 11 33 51 51
89 l34 69 1 186 c0 135 -4 192 -13 209 -7 12 -46 49 -87 81 -56 45 -84 60
-119 65 -25 4 -46 11 -46 17 0 5 -13 9 -28 9 -15 0 -33 5 -39 11 -6 6 -49 13
-95 16 -72 5 -92 2 -132 -16 -27 -11 -52 -21 -57 -21 -5 0 -9 16 -9 35 l0 35
150 -6 150 -7 0 25 c0 31 -14 35 -185 43 -66 4 -126 8 -132 10 -13 4 -58 93
-51 100 5 5 374 -21 421 -30 24 -4 27 -2 27 25 0 22 -4 28 -15 24 -10 -4 -15
0 -16 12 0 11 -3 14 -6 7 -8 -21 -33 -15 -33 7 0 11 5 20 12 20 6 0 9 2 7 4
-2 3 -35 7 -72 11 -59 6 -67 5 -67 -10 0 -14 3 -15 13 -6 15 12 27 5 27 -16 0
-8 -8 -13 -17 -11 -10 1 -24 -1 -30 -5 -16 -10 -33 0 -33 19 0 8 -4 14 -10 14
-5 0 -10 -7 -10 -15 0 -13 -16 -15 -95 -13 -82 3 -95 5 -95 20 0 9 5 20 10 23
6 3 10 12 10 18 0 7 -13 -3 -28 -21 -26 -32 -28 -33 -43 -15 -27 31 -69 109
-69 128 0 17 8 17 113 11 273 -16 313 -17 288 -6 -14 6 -32 10 -40 9 -9 -1
-41 1 -71 4 -30 4 -113 9 -185 12 -133 6 -145 9 -145 27 0 7 32 9 103 4 187
-12 482 -27 517 -26 45 1 69 8 103 32 15 11 27 16 27 11 -1 -4 -28 -25 -62
-46 -59 -37 -62 -38 -139 -33 -44 2 -79 1 -79 -4 0 -9 94 -24 128 -21 20 2 22
-2 22 -43 0 -47 -14 -66 -33 -47 -14 14 -27 14 -27 1 0 -5 7 -10 15 -10 8 0
19 -9 25 -19 5 -11 17 -27 26 -35 13 -13 14 -20 4 -31 -22 -27 13 -18 96 25
132 66 151 92 129 177 -24 92 -33 108 -70 122 -19 7 -44 24 -56 39 -11 15 -28
28 -37 28 -36 3 -284 14 -432 20 -262 10 -251 8 -257 47 -2 12 -8 26 -13 31
-17 17 -11 26 18 27 26 2 26 2 2 6 -56 9 -70 14 -70 28 0 10 -12 14 -43 13
-59 -1 -87 15 -87 52 0 15 -6 31 -12 33 -7 3 10 6 37 7 48 2 49 2 16 10 -40 9
-51 24 -51 67 0 30 5 35 58 59 71 34 152 43 171 20 8 -10 29 -16 52 -16 26 0
39 -4 39 -14 0 -10 23 -15 88 -20 90 -7 113 -8 135 -5 21 3 180 -11 189 -17 4
-3 8 -45 8 -95 0 -75 -3 -89 -16 -89 -10 0 -14 6 -10 15 3 8 1 15 -4 15 -6 0
-10 -9 -10 -20 0 -12 -12 -26 -31 -35 -48 -25 -48 -8 -1 36 46 44 50 54 26 63
-22 8 -32 -3 -14 -14 12 -8 12 -12 -5 -27 -57 -53 -110 -69 -121 -38 -7 16
-64 20 -99 6 -21 -9 -13 -11 108 -27 39 -5 45 -9 36 -20 -21 -25 -1 -27 63 -6
46 15 77 19 115 15 57 -6 100 9 161 54 25 19 32 31 32 59 0 24 5 34 15 34 19
0 19 9 0 34 -11 15 -18 17 -26 9 -16 -16 -48 5 -42 26 8 36 -12 73 -48 85 -19
7 -41 10 -48 8 -14 -5 -3 22 29 68 27 39 41 334 25 532 l-7 78 -51 14 c-36 10
-66 12 -97 6 l-45 -7 42 -2 c46 -1 53 -8 64 -61 7 -34 8 -33 6 10 -2 47 18 65
40 38 20 -25 27 -162 20 -399 -4 -142 -8 -171 -24 -195 -10 -16 -24 -38 -29
-49 -8 -14 -23 -21 -53 -23 -35 -3 -41 0 -41 17 0 14 8 21 27 23 19 2 29 10
31 23 2 18 1 18 -8 3 -11 -18 -24 -18 -290 -3 -90 5 -132 4 -125 -3 8 -8 192
-21 307 -22 20 0 28 -7 36 -30 11 -30 -2 -55 -17 -33 -7 12 -105 21 -321 29
-129 5 -169 9 -182 22 -22 19 -23 32 -3 32 8 0 15 5 15 10 0 6 -22 10 -50 10
-45 0 -50 2 -56 26 -10 38 3 459 16 519 6 27 14 53 19 58 10 10 293 11 471 2
70 -4 98 -2 84 4 -20 9 -127 17 -319 24 -44 2 -118 1 -164 -2z m-813 -538 c16
-23 25 -56 29 -101 3 -37 11 -77 19 -88 7 -12 11 -30 8 -41 -3 -10 0 -32 7
-48 l12 -30 8 53 c6 49 30 92 51 92 5 0 20 -11 33 -25 38 -37 35 -103 -6 -150
-17 -19 -37 -35 -44 -35 -8 0 -17 -5 -21 -11 -5 -8 3 -10 27 -5 l34 6 18 -92
c10 -51 30 -118 44 -150 25 -57 26 -59 7 -73 -28 -21 -31 -19 -48 31 -9 26
-30 69 -47 96 -26 40 -36 48 -53 44 -59 -18 -116 -18 -159 -1 -24 9 -55 15
-68 13 -27 -5 -20 -9 48 -27 23 -6 56 -23 73 -37 30 -26 30 -26 28 -3 -2 17 4
24 25 30 41 11 55 2 68 -43 9 -36 8 -43 -11 -63 -15 -16 -28 -60 -49 -172 -15
-83 -31 -155 -35 -162 -18 -28 -150 3 -161 38 -7 22 52 253 66 262 6 3 -22 40
-64 83 -78 80 -102 131 -72 156 8 6 15 21 17 32 2 12 9 24 17 26 10 3 12 0 8
-12 -4 -10 -1 -16 8 -16 19 0 19 20 0 46 -8 12 -12 24 -9 27 4 3 -4 20 -16 37
l-22 30 32 37 c31 35 32 37 26 111 -5 76 0 122 14 122 4 0 5 -20 3 -44 -4 -31
-1 -51 11 -67 9 -13 16 -20 16 -15 0 5 6 3 14 -3 11 -10 17 -6 29 18 9 18 11
33 5 39 -6 6 -3 34 8 75 20 73 30 75 72 10z m1533 -260 c1 -21 1 -49 1 -62 -1
-18 3 -22 18 -18 11 3 20 2 20 -3 0 -4 -9 -10 -20 -13 -17 -4 -19 -11 -14 -31
5 -22 2 -25 -29 -31 -19 -4 -50 -8 -68 -8 l-34 -2 -3 81 -3 81 40 12 c22 6 43
16 46 21 3 6 15 10 26 10 15 0 19 -8 20 -37z m43 -564 c2 -19 4 -37 5 -41 2
-15 54 -8 73 9 17 15 18 15 18 -7 0 -28 -28 -54 -104 -92 -78 -39 -89 -34 -81
39 9 83 12 89 48 112 17 11 33 19 34 17 2 -1 5 -18 7 -37z m-1736 -955 c12 -8
22 -21 22 -28 0 -6 14 -31 31 -54 17 -23 28 -46 25 -51 -3 -4 -38 -28 -78 -52
-40 -24 -80 -48 -89 -54 -9 -5 -32 -19 -50 -29 -19 -10 -45 -27 -58 -37 -32
-25 -61 -24 -63 1 -1 11 -2 32 -4 48 -1 15 -7 40 -13 55 -25 63 -17 80 57 120
37 20 90 50 117 66 58 34 73 36 103 15z m1301 -126 c21 -46 50 -109 64 -140
l25 -57 -296 0 c-178 -1 -303 3 -312 9 -8 5 -10 10 -5 10 6 1 26 3 45 6 19 2
74 8 123 12 48 4 87 11 86 17 0 6 -5 9 -10 7 -22 -6 -82 -11 -191 -17 -65 -4
-121 -7 -125 -8 -11 -1 -16 30 -9 57 5 21 13 24 88 29 98 8 133 14 171 29 47
18 16 27 -48 13 -93 -19 -195 -28 -195 -17 0 6 23 22 51 37 50 26 58 27 194
26 102 -1 155 3 185 13 48 16 70 12 70 -14 0 -10 7 -23 15 -30 9 -8 15 -9 15
-2 0 6 -4 13 -9 16 -5 3 -11 20 -13 36 -4 29 10 49 34 50 4 0 25 -37 47 -82z
m-1058 -63 c26 -18 54 -35 60 -37 19 -6 3 -37 -23 -47 -46 -17 -154 -43 -200
-48 -44 -5 -48 -3 -48 17 0 29 26 76 45 84 9 3 14 10 10 15 -3 6 -3 22 1 36 6
24 9 25 56 19 32 -4 68 -19 99 -39z"/>
<path d="M3672 2604 c-6 -12 -14 -51 -17 -86 -4 -35 -9 -74 -12 -88 -3 -14 -6
-82 -8 -153 -3 -123 -2 -127 18 -132 46 -9 267 -24 386 -24 68 -1 127 -4 132
-6 15 -10 22 19 26 114 5 135 7 154 16 169 5 6 6 16 3 20 -5 9 -8 128 -3 172
2 28 23 26 -320 33 l-211 4 -10 -23z"/>
<path d="M450 2399 c-198 -13 -347 -36 -379 -59 -16 -11 -39 -20 -50 -20 -12
0 -21 -5 -21 -11 0 -6 9 -8 20 -4 12 4 37 9 57 11 20 3 42 8 47 13 21 17 233
40 424 47 l193 7 34 -33 c32 -31 66 -110 70 -165 2 -20 41 -214 70 -350 16
-76 47 -259 71 -425 9 -58 16 -105 17 -106 1 -1 45 -4 97 -8 106 -6 96 7 -13
19 -37 4 -67 8 -67 10 0 1 -7 41 -15 88 -8 47 -19 117 -25 154 -5 37 -19 120
-31 183 -11 63 -26 150 -33 193 l-14 79 29 -4 c15 -3 26 -1 23 4 -3 4 -16 8
-30 8 -16 0 -24 6 -25 18 -1 9 -2 26 -3 37 0 11 -5 26 -9 32 -4 7 -3 21 3 32
13 25 13 34 0 26 -5 -3 -9 13 -8 40 1 46 -1 49 -77 153 l-30 41 -105 -1 c-58
-1 -157 -5 -220 -9z"/>
<path d="M610 2261 c-14 -8 -227 -32 -293 -33 -15 -1 -27 -5 -27 -10 0 -5 -15
-8 -32 -6 -28 3 -33 0 -30 -17 1 -11 4 -33 6 -50 2 -16 11 -57 20 -90 44 -159
136 -646 136 -721 0 -36 19 -94 35 -111 10 -9 29 -7 86 8 83 23 125 32 217 49
35 6 78 19 96 29 18 10 47 22 64 26 34 7 39 14 21 32 -6 6 -12 37 -14 69 -3
65 -18 171 -35 249 -6 28 -13 70 -15 95 -3 24 -7 51 -11 60 -3 8 -8 31 -10 50
-3 19 -9 49 -14 65 -4 17 -14 59 -20 95 -17 96 -41 172 -64 198 -21 23 -85 31
-116 13z"/>
<path d="M2105 2198 c-38 -5 -83 -9 -99 -8 -16 0 -44 -4 -62 -10 -18 -6 -61
-14 -96 -18 -47 -6 -63 -11 -61 -22 1 -8 9 -47 18 -87 8 -39 15 -75 14 -80 -1
-4 1 -26 5 -48 23 -134 42 -233 60 -325 20 -100 22 -105 46 -104 38 2 217 47
255 64 11 5 46 14 77 21 62 13 71 26 56 83 -4 16 -12 88 -18 160 -6 72 -15
147 -21 166 -5 19 -9 47 -9 63 0 15 -3 27 -8 27 -4 0 -8 18 -8 41 -2 43 -35
90 -63 88 -9 -1 -47 -6 -86 -11z m85 -34 c0 -7 7 -15 16 -18 11 -4 14 -13 11
-27 -3 -12 0 -30 6 -41 10 -17 9 -22 -2 -26 -8 -2 -9 -7 -3 -11 5 -3 12 -17
16 -31 6 -21 5 -22 -4 -7 -6 9 -15 17 -21 17 -5 0 5 -25 22 -55 19 -34 28 -62
24 -74 -3 -11 -2 -22 3 -25 5 -3 8 -17 7 -31 -2 -14 1 -25 6 -25 5 0 3 -13 -6
-30 -16 -32 -20 -54 -5 -30 12 19 17 13 25 -35 6 -37 5 -39 -9 -21 -9 11 -19
16 -23 11 -5 -4 -2 -10 5 -12 6 -3 12 -16 12 -29 0 -17 4 -23 13 -19 6 4 1 -3
-12 -14 -13 -12 -31 -21 -41 -21 -10 0 -34 -7 -55 -15 -20 -9 -46 -13 -57 -9
-13 4 -18 2 -14 -4 4 -7 -8 -14 -30 -18 -24 -4 -39 -3 -44 6 -5 9 -9 9 -14 1
-4 -6 -5 -15 -2 -20 8 -12 -66 -23 -78 -11 -7 7 -4 10 7 10 9 0 17 4 17 9 0 5
-9 7 -20 4 -15 -4 -19 -2 -14 10 3 8 1 18 -5 22 -6 3 -11 11 -11 16 0 6 5 7
10 4 6 -3 10 -2 10 3 0 6 -6 12 -14 15 -7 3 -16 20 -18 39 -3 18 -7 40 -9 48
-3 10 2 14 16 12 15 -2 17 -1 6 6 -8 6 -10 15 -6 23 6 9 4 11 -7 6 -23 -8 -28
1 -17 30 6 16 6 22 -1 18 -13 -8 -13 8 0 21 6 6 5 15 -1 24 -9 12 -10 11 -4
-5 4 -13 3 -16 -3 -10 -5 6 -12 39 -15 74 -3 41 -2 59 4 50 15 -23 10 6 -6 37
-13 26 -13 29 3 36 9 4 11 7 5 7 -19 1 -16 19 5 24 13 4 11 5 -5 6 -13 0 -23
5 -23 10 0 11 48 24 60 16 6 -4 10 -1 10 4 0 6 -4 11 -10 11 -5 0 -10 5 -10
10 0 6 7 10 15 10 8 0 15 -4 15 -9 0 -16 28 -20 34 -4 4 11 2 14 -9 9 -8 -3
-15 -2 -15 2 0 10 89 36 97 29 3 -3 -2 -14 -11 -23 -9 -9 -15 -19 -12 -21 3
-3 16 6 29 20 18 20 35 26 73 29 79 5 84 4 84 -8z"/>
<path d="M1655 2148 c3 -13 9 -52 14 -88 46 -317 99 -622 112 -634 13 -13 10
21 -26 224 -13 74 -35 216 -50 315 -15 99 -29 186 -31 193 -6 22 -25 13 -19
-10z"/>
<path d="M1325 2155 c-5 -1 -28 -8 -50 -14 -22 -6 -78 -23 -125 -38 -47 -15
-89 -26 -93 -25 -5 1 -6 -2 -3 -7 5 -8 -29 -24 -46 -22 -10 1 -44 -50 -54 -84
-13 -38 -10 -83 10 -220 41 -265 72 -371 116 -395 11 -6 39 -10 61 -8 40 2 63
-15 64 -47 0 -5 20 -11 45 -12 40 -1 41 0 11 5 -22 5 -37 15 -42 30 -8 22 -2
27 29 23 6 -1 12 3 12 9 0 6 -32 10 -85 10 l-84 0 -24 43 c-30 51 -38 89 -73
328 -29 200 -28 242 9 284 24 28 105 61 261 106 54 15 101 31 104 34 6 5 -25
6 -43 0z"/>
<path d="M7 733 c-16 -16 -3 -21 68 -28 41 -4 77 -10 79 -14 3 -3 1 -74 -2
-156 l-7 -148 -72 2 c-41 1 -73 -2 -73 -7 0 -12 49 -22 106 -22 48 0 51 -5 52
-82 l1 -48 -36 0 c-45 0 -40 -5 12 -13 l40 -6 0 242 0 242 45 -3 c79 -6 79 -6
72 -257 l-7 -219 -25 -7 c-16 -5 -4 -7 35 -7 33 1 50 3 39 5 -24 4 -35 44 -29
104 9 93 5 372 -5 384 -10 12 -63 20 -194 30 -33 3 -67 7 -76 10 -9 3 -19 2
-23 -2z"/>
</g>
</svg>
